<?xml version="1.0" encoding="UTF-8"?>
<svg width="19px" height="20px" viewBox="0 0 19 20" version="1.1" xmlns="http://www.w3.org/2000/svg" xmlns:xlink="http://www.w3.org/1999/xlink">
    <!-- Generator: Sketch 56.3 (81716) - https://sketch.com -->
    <title>noun_Share_2058620</title>
    <desc>Created with Sketch.</desc>
    <g id="Page-1" stroke="none" stroke-width="1" fill="none" fill-rule="evenodd">
        <g id="noun_Share_2058620" fill="#000000" fill-rule="nonzero">
            <g id="Group">
                <g id="Shape">
                    <g>
                        <g>
                            <path d="M17.595,11.4776 C18.065,11.4776 18.445,11.8586 18.445,12.3286 L18.445,18.4736 C18.445,18.9436 18.065,19.3246 17.595,19.3246 L0.85,19.3246 C0.381,19.3246 0,18.9436 0,18.4736 L0,12.3286 C0,11.8586 0.381,11.4776 0.85,11.4776 C1.32,11.4776 1.7,11.8586 1.7,12.3286 L1.7,17.6236 L16.745,17.6236 L16.745,12.3286 C16.745,11.8586 17.126,11.4776 17.595,11.4776 Z M3.1633,8.128 C2.8283,8.463 2.2863,8.463 1.9513,8.128 C1.6163,7.794 1.6163,7.251 1.9513,6.916 L8.5573,0.31 C8.7043,0.126 8.9213,0 9.1763,0 L9.2233,0 L9.2693,0 C9.5233,0 9.7403,0.126 9.8883,0.31 L16.4943,6.916 C16.8293,7.251 16.8293,7.794 16.4943,8.128 C16.1593,8.463 15.6163,8.463 15.2823,8.128 L10.0733,2.92 C10.0733,2.919 10.0723,2.919 10.0723,2.919 L10.0723,13.42 C10.0723,13.864 9.7133,14.224 9.2693,14.224 L9.1763,14.224 C8.7323,14.224 8.3723,13.864 8.3723,13.42 L8.3723,2.919 L3.1633,8.128 Z"></path>
                        </g>
                    </g>
                </g>
            </g>
        </g>
    </g>
</svg>